<svg viewBox="0 0 24 24" xmlns="http://www.w3.org/2000/svg" fill="#fff">
  <path fill-rule="evenodd" clip-rule="evenodd" d="M20.7024 2.07782C20.3937 1.9095 20.0071 2.02326 19.8387 2.33191L14.7415 11.679C14.1315 11.2867 12.5639 10.42 11.3923 11.0061C10.3929 11.5061 10.1645 11.9182 9.7972 12.5811L9.75982 12.6485L17.4519 16.3461C17.8157 15.5976 18.0392 14.7269 17.7579 13.977C17.4612 13.1858 16.5737 12.5962 15.8846 12.2419L20.9565 2.94145C21.1248 2.6328 21.011 2.24614 20.7024 2.07782ZM9.05827 13.7646L9.08017 13.7343L16.7805 17.4359C16.6758 17.5743 16.5752 17.6958 16.4848 17.7962L12.9912 21.8721C12.7862 22.1113 12.4811 22.2405 12.1701 22.1901C11.4069 22.0663 9.9278 21.7116 8.93156 20.7456C8.80688 20.6246 8.85936 20.4169 9.00607 20.324C9.86774 19.7781 10.625 18.4374 10.625 18.4374C10.625 18.4374 9.05827 19.4999 7.0625 19.4374C5.52782 19.3893 3.64397 17.9429 2.85543 17.2771C2.6979 17.144 2.76842 16.8923 2.96968 16.8476C4.24898 16.5636 7.68904 15.6473 9.05827 13.7646Z"></path>
  <path d="M8.60974 9.02978C8.52129 8.8234 8.22871 8.82341 8.14026 9.02978L7.77833 9.87431C7.70052 10.0559 7.55586 10.2005 7.37431 10.2783L6.52978 10.6403C6.3234 10.7287 6.32341 11.0213 6.52978 11.1097L7.37431 11.4717C7.55586 11.5495 7.70052 11.6941 7.77833 11.8757L8.14026 12.7202C8.22871 12.9266 8.52129 12.9266 8.60974 12.7202L8.97167 11.8757C9.04948 11.6941 9.19414 11.5495 9.37569 11.4717L10.2202 11.1097C10.4266 11.0213 10.4266 10.7287 10.2202 10.6403L9.37569 10.2783C9.19414 10.2005 9.04948 10.0559 8.97167 9.87431L8.60974 9.02978Z"></path>
  <path d="M14.0511 5.99109C13.9847 5.8363 13.7653 5.8363 13.6989 5.99109L13.4275 6.62448C13.3691 6.76064 13.2606 6.86914 13.1245 6.92749L12.4911 7.19895C12.3363 7.26528 12.3363 7.48472 12.4911 7.55105L13.1245 7.82251C13.2606 7.88086 13.3691 7.98936 13.4275 8.12552L13.6989 8.75891C13.7653 8.9137 13.9847 8.9137 14.0511 8.75891L14.3225 8.12552C14.3809 7.98936 14.4894 7.88086 14.6255 7.82251L15.2589 7.55105C15.4137 7.48472 15.4137 7.26528 15.2589 7.19895L14.6255 6.92749C14.4894 6.86914 14.3809 6.76064 14.3225 6.62448L14.0511 5.99109Z"></path>
</svg>