<svg xmlns="http://www.w3.org/2000/svg" viewBox="0 0 2048 2048" fill="#666">
  <path d="M0 1984q0-26 8-54t15-53q23-95 48-188t48-188q-59-110-89-230T0 1026q0-141 36-272t103-246 160-207 208-161T752 37t272-37q141 0 271 36t245 104 207 160 161 207 103 244 37 272q0 140-36 270t-103 245-159 208-206 161-244 104-271 37q-124 0-244-28t-230-86L79 2046q-10 2-15 2-27 0-45-18t-19-46zm1020-64q124 0 239-32t215-90 182-139 141-182 91-215 32-239q0-124-32-238t-90-214-141-181-182-140-214-90-238-32q-123 0-237 32t-214 90-181 139-140 181-91 213-32 238q0 65 8 120t23 107 36 105 48 109q8 16 8 31 0 11-6 41t-16 69-21 84-23 86-20 74-13 50q68-16 134-32t135-33q34-8 71-19t72-11q8 0 15 2t15 6q54 25 104 45t102 35 105 22 115 8zM704 896q-26 0-45-19t-19-45q0-26 19-45t45-19h640q26 0 45 19t19 45q0 26-19 45t-45 19H704zm0 384q-26 0-45-19t-19-45q0-26 19-45t45-19h384q26 0 45 19t19 45q0 26-19 45t-45 19H704z"></path>
</svg>