<svg xmlns="http://www.w3.org/2000/svg" viewBox="0 0 2048 2048" fill="#111">
  <path d="M2048 1024q0 142-36 273t-103 244-160 207-207 160-245 103-273 37q-142 0-273-36t-245-103-207-160-159-207-103-245-37-273q0-142 36-273t103-244 160-207 207-160T751 37t273-37q111 0 217 23t204 68 185 109 162 147V64q0-26 19-45t45-19q26 0 45 19t19 45v241q0 120 1 241 0 17-2 33t-9 30-20 22-34 9h-512q-26 0-45-19t-19-45q0-26 19-45t45-19h415q-63-90-144-161t-177-120-200-76-214-27q-124 0-238 32t-214 90-181 140-140 181-91 214-32 239q0 124 32 238t90 214 140 182 181 140 214 90 239 32q121 0 234-30t213-88 183-141 145-187q62-106 91-217t30-233q0-26 19-45t45-19q26 0 45 19t19 45z"></path>
</svg>
