<svg viewBox="0 0 14 14" xmlns="http://www.w3.org/2000/svg" fill="#75306c">
  <path d="M11 0C12.6569 2.38419e-07 14 1.34315 14 3V4.5C14 4.77614 13.7761 5 13.5 5C13.2239 5 13 4.77614 13 4.5V3C13 1.89543 12.1046 1 11 1H9.5C9.22386 1 9 0.776142 9 0.5C9 0.223858 9.22386 0 9.5 0H11ZM3 2.38419e-07C1.34315 2.38419e-07 0 1.34315 0 3V4.5C0 4.77614 0.223858 5 0.5 5C0.776142 5 1 4.77614 1 4.5V3C1 1.89543 1.89543 1 3 1H4.5C4.77614 1 5 0.776143 5 0.5C5 0.223858 4.77614 2.38419e-07 4.5 2.38419e-07H3ZM11 14C12.6569 14 14 12.6569 14 11V9.5C14 9.22386 13.7761 9 13.5 9C13.2239 9 13 9.22386 13 9.5V11C13 12.1046 12.1046 13 11 13H9.5C9.22386 13 9 13.2239 9 13.5C9 13.7761 9.22386 14 9.5 14H11ZM4.76837e-07 11C2.38419e-07 12.6569 1.34315 14 3 14H4.5C4.77614 14 5 13.7761 5 13.5C5 13.2239 4.77614 13 4.5 13H3C1.89543 13 1 12.1046 1 11V9.5C1 9.22386 0.776143 9 0.500001 9C0.223858 9 7.15256e-07 9.22386 4.76837e-07 9.5V11ZM7 9C8.10457 9 9 8.10457 9 7C9 5.89543 8.10457 5 7 5C5.89543 5 5 5.89543 5 7C5 8.10457 5.89543 9 7 9ZM7 8C6.44772 8 6 7.55228 6 7C6 6.44772 6.44772 6 7 6C7.55228 6 8 6.44772 8 7C8 7.55228 7.55228 8 7 8ZM3.5 4.25C3.91421 4.25 4.25 3.91421 4.25 3.5C4.25 3.08579 3.91421 2.75 3.5 2.75C3.08579 2.75 2.75 3.08579 2.75 3.5C2.75 3.91421 3.08579 4.25 3.5 4.25Z"></path>
</svg>